<svg xmlns="http://www.w3.org/2000/svg" class="svg-logo" width="2400" height="2400" viewBox="0 0 630 430" style="height: auto;"><rect width="630" height="630" y="-100" rx="0" ry="0" fill="transparent" fill-opacity="0"></rect><g data-element="wrapper" transform="translate(-236.24998664856287 -156.87500000000222) scale(1.7500000000000104)"><g ><g data-element="icon" transform="scale(0.14166666666666666) translate(1923.5294117647059 929.7091098673203)"><path id="color_x5F_2_2_" d="M600,106.623v412.913c0,0-76.04-10.317-102.735-10.644        C354.078,507.133,300,588.912,300,588.912c-0.569-0.786-56.091-75-197.265-80.02C51.539,507.071,0,519.536,0,519.536V106.623        c0,0,52.383-12.204,102.735-10.212c46.347,1.833,83.681,9.296,113.261,19.06v30.049c-27.132-10.433-64.387-19.108-113.261-19.108        c-22.955,0-47.368,1.906-72.736,5.671v352.169c25.257-3.559,49.653-5.359,72.736-5.359c114.311,0,173.69,43.207,197.266,66.309        c23.583-23.102,82.972-66.309,197.264-66.309c23.082,0,47.478,1.8,72.735,5.359V132.082c-16.445-2.441-38.836-4.087-54.341-4.953        V96.978C559.087,99.13,600,106.623,600,106.623z" fill="#d94a3d" fill-opacity="1"></path> <path id="color_x5F_1_2_" d="M384.004,468.217V11.088h95.299V447.11        C479.303,447.11,425.263,444.915,384.004,468.217z M300,500.109c0,0,13.454-12.629,47.648-29V116.088h-95.297v355.021        C299.167,493.48,300,500.109,300,500.109z M215.996,468.217V236.088h-95.298V447.11        C194.524,451.61,215.996,468.217,215.996,468.217z" fill="#3057a3" fill-opacity="1"></path></g><path d="M213.10 228.62L213.10 273.43L204.97 273.43L204.97 228.62L213.10 228.62ZM262.72 265.31L262.72 273.43L233.41 273.43Q232.29 273.43 230.99 273.17Q229.69 272.90 228.43 272.34Q227.16 271.78 226.00 270.89Q224.85 270.00 223.96 268.73Q223.07 267.47 222.54 265.79Q222.00 264.12 222.00 262.03L222.00 262.03L222.00 240.03Q222.00 238.90 222.27 237.61Q222.54 236.31 223.10 235.04Q223.66 233.78 224.57 232.62Q225.47 231.47 226.74 230.58Q228.00 229.68 229.66 229.15Q231.32 228.62 233.41 228.62L233.41 228.62L262.72 228.62L262.72 236.75L233.41 236.75Q231.82 236.75 230.97 237.59Q230.13 238.43 230.13 240.09L230.13 240.09L230.13 262.03Q230.13 263.59 230.99 264.45Q231.85 265.31 233.41 265.31L233.41 265.31L262.72 265.31ZM322.57 232.09L322.57 273.43L314.38 273.43L314.38 246.75L299.97 272.09Q299.44 273.06 298.49 273.56Q297.54 274.06 296.44 274.06L296.44 274.06Q295.38 274.06 294.46 273.56Q293.54 273.06 293.00 272.09L293.00 272.09L278.54 246.75L278.54 273.43L270.41 273.43L270.41 232.09Q270.41 230.68 271.24 229.59Q272.07 228.50 273.41 228.12L273.41 228.12Q274.07 227.97 274.72 228.01Q275.38 228.06 275.99 228.29Q276.60 228.53 277.10 228.95Q277.60 229.37 277.94 229.97L277.94 229.97L296.44 262.12L314.94 229.97Q315.66 228.78 316.93 228.28Q318.19 227.78 319.57 228.12L319.57 228.12Q320.88 228.50 321.72 229.59Q322.57 230.68 322.57 232.09L322.57 232.09ZM376.72 247.37L376.72 254.68Q376.72 258.78 375.30 262.22Q373.88 265.65 371.38 268.14Q368.88 270.62 365.44 272.03Q362.00 273.43 357.97 273.43L357.97 273.43L336.04 273.43Q335.16 273.43 334.41 273.12Q333.66 272.81 333.11 272.26Q332.57 271.72 332.25 270.97Q331.94 270.22 331.94 269.34L331.94 269.34L331.94 232.72Q331.94 231.87 332.25 231.12Q332.57 230.37 333.11 229.81Q333.66 229.25 334.41 228.93Q335.16 228.62 336.04 228.62L336.04 228.62L357.97 228.62Q362.00 228.62 365.44 230.03Q368.88 231.43 371.38 233.92Q373.88 236.40 375.30 239.86Q376.72 243.31 376.72 247.37L376.72 247.37ZM368.60 254.68L368.60 247.37Q368.60 245.00 367.83 243.03Q367.07 241.06 365.66 239.67Q364.25 238.28 362.30 237.51Q360.35 236.75 357.97 236.75L357.97 236.75L340.07 236.75L340.07 265.31L357.97 265.31Q360.35 265.31 362.30 264.54Q364.25 263.78 365.66 262.39Q367.07 261.00 367.83 259.04Q368.60 257.09 368.60 254.68L368.60 254.68ZM427.75 260.25L427.75 260.25Q427.75 262.65 427.15 264.58Q426.54 266.50 425.54 267.97Q424.54 269.43 423.19 270.47Q421.85 271.50 420.41 272.15Q418.97 272.81 417.49 273.12Q416.00 273.43 414.69 273.43L414.69 273.43L383.35 273.43L383.35 265.31L414.69 265.31Q417.04 265.31 418.33 263.93Q419.63 262.56 419.63 260.25L419.63 260.25Q419.63 259.12 419.29 258.18Q418.94 257.25 418.30 256.56Q417.66 255.87 416.74 255.50Q415.82 255.12 414.69 255.12L414.69 255.12L396.00 255.12Q394.04 255.12 391.75 254.42Q389.47 253.72 387.52 252.15Q385.57 250.59 384.27 248.06Q382.97 245.53 382.97 241.87L382.97 241.87Q382.97 238.22 384.27 235.70Q385.57 233.18 387.52 231.61Q389.47 230.03 391.75 229.33Q394.04 228.62 396.00 228.62L396.00 228.62L423.66 228.62L423.66 236.75L396.00 236.75Q393.69 236.75 392.40 238.15Q391.10 239.56 391.10 241.87L391.10 241.87Q391.10 244.22 392.40 245.58Q393.69 246.93 396.00 246.93L396.00 246.93L414.69 246.93L414.75 246.93Q416.07 246.97 417.54 247.29Q419.00 247.62 420.46 248.31Q421.91 249.00 423.22 250.04Q424.54 251.09 425.55 252.56Q426.57 254.03 427.16 255.93Q427.75 257.84 427.75 260.25Z" data-element="company-name" data-text-path="" data-text="ICMDS" data-font-family="Audiowide" fill="#3057a3" fill-opacity="1"></path></g></g></svg>